{
  "title": "Orange is the new black S04E12 720p WEBRip x264-TheRival",
  "uid": 14974215,
  "size": 930825100,
  "categoryP": "video",
  "categoryS": "hd___tv_shows",
  "magnet": "?xt=urn:btih:9272f843d6d96a2b10fc70a56e20649eb47107b3&amp;dn=Orange+is+the+new+black+S04E12+720p+WEBRip+x264-TheRival&amp;tr=udp%3A%2F%2Ftracker.leechers-paradise.org%3A6969&amp;tr=udp%3A%2F%2Fzer0day.ch%3A1337&amp;tr=udp%3A%2F%2Fopen.demonii.com%3A1337&amp;tr=udp%3A%2F%2Ftracker.coppersurfer.tk%3A6969&amp;tr=udp%3A%2F%2Fexodus.desync.com%3A6969",
  "seeders": 74,
  "leechers": 6,
  "uploader": "TheRival",
  "files": 2,
  "time": 1466222332,
  "description": "http://extraimago.com/image/aGEJ \nhttp://extraimago.com/image/aGEK \nhttp://extraimago.com/image/aGEZ \nhttp://extraimago.com/image/aGEe\r\n\r\nVideo\r\nID : 1\r\nFormat : AVC\r\nFormat/Info : Advanced Video Codec\r\nFormat profile :   \r\nFormat settings, CABAC : Yes\r\nFormat settings, ReFrames : 2 frames\r\nFormat settings, GOP : M=1, N=24\r\nCodec ID : avc1\r\nCodec ID/Info : Advanced Video Coding\r\nDuration : 1h 0mn\r\nSource duration : 1h 0mn\r\nBit rate mode : Variable\r\nBit rate : 1 937 Kbps\r\nMaximum bit rate : 3 000 Kbps\r\nWidth : 1 280 pixels\r\nHeight : 720 pixels\r\nDisplay aspect ratio : 16:9\r\nFrame rate mode : Constant\r\nFrame rate : 23.976 (24000/1001) fps\r\nColor space : YUV\r\nChroma subsampling : 4:2:0\r\nBit depth : 8 bits\r\nScan type : Progressive\r\nBits/(Pixel*Frame) : 0.088\r\nStream size : 831 MiB (94%)\r\nSource stream size : 831 MiB (94%)\r\nEncoded date : UTC 2016-06-18 01:38:50\r\nTagged date : UTC 2016-06-18 01:46:23\r\nColor primaries : BT.709\r\nTransfer characteristics : BT.709\r\nMatrix coefficients : BT.709\r\n\r\nAudio\r\nID : 2\r\nFormat : AAC\r\nFormat/Info : Advanced Audio Codec\r\nFormat profile : LC\r\nCodec ID : 40\r\nDuration : 1h 0mn\r\nBit rate mode : Variable\r\nBit rate : 128 Kbps\r\nMaximum bit rate : 132 Kbps\r\nChannel(s) : 2 channels\r\nChannel positions : Front: L R\r\nSampling rate : 48.0 KHz\r\nFrame rate : 46.875 fps (1024 spf)\r\nCompression mode : Lossy\r\nStream size : 54.9 MiB (6%)\r\nTitle : English (aac 2.0)\r\nLanguage : English\r\nDefault : Yes\r\nAlternate group : 1",
  "parsed": {
    "xt": "urn:btih:9272f843d6d96a2b10fc70a56e20649eb47107b3",
    "dn": "Orange is the new black S04E12 720p WEBRip x264-TheRival",
    "tr": [
      "udp://exodus.desync.com:6969",
      "udp://open.demonii.com:1337",
      "udp://tracker.coppersurfer.tk:6969",
      "udp://tracker.leechers-paradise.org:6969",
      "udp://zer0day.ch:1337"
    ],
    "infoHash": "9272f843d6d96a2b10fc70a56e20649eb47107b3",
    "infoHashBuffer": {
      "type": "Buffer",
      "data": [
        146,
        114,
        248,
        67,
        214,
        217,
        106,
        43,
        16,
        252,
        112,
        165,
        110,
        32,
        100,
        158,
        180,
        113,
        7,
        179
      ]
    },
    "name": "Orange is the new black S04E12 720p WEBRip x264-TheRival",
    "announce": [
      "udp://exodus.desync.com:6969",
      "udp://open.demonii.com:1337",
      "udp://tracker.coppersurfer.tk:6969",
      "udp://tracker.leechers-paradise.org:6969",
      "udp://zer0day.ch:1337"
    ],
    "urlList": []
  },
  "previous": 80,
  "peers": 150,
  "last_updated": "2016-12-25T08:00:38.706Z"
}